<?xml version="1.0" standalone="no"?><!DOCTYPE svg PUBLIC "-//W3C//DTD SVG 1.1//EN" "http://www.w3.org/Graphics/SVG/1.1/DTD/svg11.dtd"><svg class="icon" width="200px" height="200.00px" viewBox="0 0 1024 1024" version="1.1" xmlns="http://www.w3.org/2000/svg"><path d="M830.455808 317.425664c9.168896-6.85056 22.183936-4.583424 28.29312 3.844096 6.873088 9.168896 4.585472 22.181888-4.583424 28.291072L529.94048 585.066496c-7.63904 5.347328-16.807936 4.585472-23.709696 0L181.266432 349.56288c-9.168896-6.111232-10.696704-19.122176-4.583424-28.291072 6.90176-8.42752 19.124224-10.694656 28.291072-3.844096l312.743936 226.33472L830.455808 317.425664zM171.33568 176.754688l692.760576 0c22.943744 0 43.595776 9.168896 58.116096 24.446976 14.5408 14.5408 23.7056 35.19488 23.7056 57.37472l0 516.134912c0 22.153216-9.166848 42.805248-23.7056 58.109952l0 0 0 0 0 0c-15.282176 14.518272-35.172352 23.683072-58.116096 23.683072L171.33568 856.50432c-22.183936 0-42.809344-9.166848-57.348096-23.683072-15.280128-15.304704-24.471552-35.190784-24.471552-58.109952L89.516032 258.574336c0-22.17984 9.191424-42.83392 24.471552-57.37472l0 0C128.526336 185.921536 149.153792 176.754688 171.33568 176.754688L171.33568 176.754688zM864.096256 217.270272 171.33568 217.270272c-11.460608 0-21.417984 4.583424-29.057024 12.222464l0 0c-7.63904 7.63904-12.224512 17.598464-12.224512 29.0816l0 516.134912c0 11.45856 4.585472 22.153216 12.224512 29.054976 7.63904 7.641088 17.596416 12.222464 29.057024 12.222464l692.760576 0c11.485184 0 22.181888-4.579328 29.822976-12.222464l0 0c6.873088-6.899712 11.483136-17.596416 11.483136-29.054976L905.402368 258.574336c0-11.483136-4.610048-21.44256-11.483136-29.0816C886.278144 221.853696 875.58144 217.270272 864.096256 217.270272L864.096256 217.270272zM506.230784 585.066496c-2.265088-1.527808-3.792896-3.055616-4.583424-4.583424" fill="#cccccc" /></svg>