<?xml version="1.0" standalone="no"?><!DOCTYPE svg PUBLIC "-//W3C//DTD SVG 1.1//EN" "http://www.w3.org/Graphics/SVG/1.1/DTD/svg11.dtd"><svg t="1530150859012" class="icon" style="" viewBox="0 0 1024 1024" version="1.1" xmlns="http://www.w3.org/2000/svg" p-id="3932" xmlns:xlink="http://www.w3.org/1999/xlink" width="200" height="200"><defs><style type="text/css"></style></defs><path d="M465.92 243.2c-2.56 0-2.56 0-5.12 0-12.8-2.56-23.04-15.36-20.48-30.72C476.16 15.36 634.88 0 637.44 0c15.36 0 25.6 10.24 28.16 23.04 0 12.8-10.24 25.6-23.04 28.16-5.12 0-122.88 12.8-151.04 171.52C488.96 235.52 476.16 243.2 465.92 243.2z" p-id="3933" fill="#7dc969"></path><path d="M279.04 51.2c64 0 97.28 28.16 97.28 38.4S343.04 128 279.04 128 184.32 99.84 184.32 89.6 217.6 51.2 279.04 51.2M279.04 0C197.12 0 133.12 40.96 133.12 89.6S197.12 179.2 279.04 179.2s148.48-40.96 148.48-89.6S360.96 0 279.04 0L279.04 0z" p-id="3934" fill="#7dc969"></path><path d="M463.36 1024C463.36 1024 463.36 1024 463.36 1024c-120.32 0-232.96-46.08-312.32-130.56-84.48-89.6-128-215.04-117.76-350.72 7.68-110.08 40.96-189.44 102.4-238.08 79.36-61.44 174.08-51.2 202.24-46.08 64 12.8 122.88 33.28 145.92 43.52 23.04-12.8 84.48-38.4 161.28-53.76 102.4-20.48 232.96 33.28 273.92 153.6 35.84 110.08 33.28 294.4-38.4 401.92C806.4 908.8 709.12 1024 463.36 1024zM289.28 302.08c-33.28 0-81.92 7.68-120.32 38.4-51.2 38.4-79.36 107.52-84.48 202.24C74.24 665.6 112.64 778.24 186.88 857.6c69.12 74.24 166.4 115.2 273.92 115.2 0 0 0 0 0 0 222.72 0 302.08-94.72 371.2-197.12 58.88-92.16 66.56-261.12 33.28-358.4-30.72-94.72-135.68-135.68-215.04-120.32-89.6 17.92-156.16 53.76-156.16 53.76-7.68 5.12-15.36 5.12-23.04 0 0 0-69.12-30.72-145.92-43.52C320 304.64 307.2 302.08 289.28 302.08z" p-id="3935" fill="#7dc969"></path></svg>