<?xml version="1.0" standalone="no"?><!DOCTYPE svg PUBLIC "-//W3C//DTD SVG 1.1//EN" "http://www.w3.org/Graphics/SVG/1.1/DTD/svg11.dtd"><svg t="1530151290183" class="icon" style="" viewBox="0 0 1024 1024" version="1.1" xmlns="http://www.w3.org/2000/svg" p-id="5955" xmlns:xlink="http://www.w3.org/1999/xlink" width="200" height="200"><defs><style type="text/css"></style></defs><path d="M714.2 527.8c0-30.6-24.9-55.5-55.5-55.5H202.2c-30.6 0-55.5 24.9-55.5 55.5s24.9 55.5 55.5 55.5h39.9c-2.1 1.7-4.8 2.8-7.7 2.8-48.3 0-87.7 39.3-87.7 87.7v199.7c0 30.6 24.9 55.5 55.5 55.5h456.4c30.6 0 55.5-24.9 55.5-55.5V673.8c0-48.3-39.3-87.7-87.7-87.7-2.9 0-5.6-1.1-7.7-2.8h39.9c30.6 0 55.6-24.9 55.6-55.5z m-527.5 0c0-8.6 7-15.5 15.5-15.5h456.4c8.6 0 15.5 7 15.5 15.5s-7 15.5-15.5 15.5H202.2c-8.5 0-15.5-7-15.5-15.5zM658.6 889H202.2c-8.6 0-15.5-7-15.5-15.5V766.2h487.5v107.2c0 8.6-7 15.6-15.6 15.6z m-32.1-262.9c26.3 0 47.7 21.4 47.7 47.7v52.5H528.1v-55h-40v55h-80.5v-119h-40v119H186.7v-52.5c0-26.3 21.4-47.7 47.7-47.7 25.6 0 46.9-18.5 51.3-42.8h289.6c4.3 24.3 25.6 42.8 51.2 42.8zM829.3 213H584.8c-9.4-14.5-25.7-24.2-44.2-24.2-8.6 0-16.8 2.1-24 5.8v-0.3c0-29-23.6-52.5-52.5-52.5-8.6 0-16.8 2.1-24 5.8v-0.2c0-29-23.6-52.5-52.5-52.5s-52.5 23.6-52.5 52.5v0.2c-7.2-3.7-15.3-5.8-24-5.8-29 0-52.5 23.6-52.5 52.5v0.3c-7.2-3.7-15.3-5.8-24-5.8-29 0-52.5 23.6-52.5 52.5v29.5c0 29 23.6 52.5 52.5 52.5 8.6 0 16.8-2.1 24-5.8v1.7c0 29 23.6 52.5 52.5 52.5 8.6 0 16.8-2.1 24-5.8 0.5 28.5 23.8 51.6 52.5 51.6s52-23.1 52.5-51.6c7.2 3.7 15.4 5.8 24 5.8 29 0 52.5-23.6 52.5-52.5v-1.7c7.2 3.7 15.3 5.8 24 5.8 13.9 0 26.6-5.5 36-14.3h252.7c26.5 0 48-21.5 48-48s-21.5-48-48-48z m-582.2 57.9c0 6.8-5.7 12.5-12.5 12.5s-12.5-5.7-12.5-12.5v-29.5c0-6.8 5.7-12.5 12.5-12.5s12.5 5.7 12.5 12.5v29.5z m76.5 48.4c0 6.8-5.7 12.5-12.5 12.5s-12.5-5.7-12.5-12.5V194.4c0-6.8 5.7-12.5 12.5-12.5s12.5 5.7 12.5 12.5v124.9z m76.5 45.8c0 6.8-5.7 12.5-12.5 12.5s-12.5-5.7-12.5-12.5V147.5c0-6.8 5.7-12.5 12.5-12.5s12.5 5.7 12.5 12.5v217.6z m76.5-45.8c0 6.8-5.7 12.5-12.5 12.5s-12.5-5.7-12.5-12.5V194.4c0-6.8 5.7-12.5 12.5-12.5s12.5 5.7 12.5 12.5v124.9z m76.5-48.4c0 6.8-5.7 12.5-12.5 12.5s-12.5-5.7-12.5-12.5v-29.5c0-6.8 5.7-12.5 12.5-12.5s12.5 5.7 12.5 12.5v29.5z m276.2-1.9H595.1v-16h234.2c4.4 0 8 3.6 8 8s-3.6 8-8 8zM367.6 428.2h40v32h-40z" p-id="5956" fill="#7dc969"></path></svg>