<?xml version="1.0" standalone="no"?><!DOCTYPE svg PUBLIC "-//W3C//DTD SVG 1.1//EN" "http://www.w3.org/Graphics/SVG/1.1/DTD/svg11.dtd"><svg class="icon" width="200px" height="200.00px" viewBox="0 0 1024 1024" version="1.1" xmlns="http://www.w3.org/2000/svg"><path d="M512 1024C229.2224 1024 0 794.7776 0 512S229.2224 0 512 0s512 229.2224 512 512-229.2224 512-512 512z m0-998.4C243.3792 25.6 25.6 243.3792 25.6 512s217.7792 486.4 486.4 486.4 486.4-217.7792 486.4-486.4S780.6208 25.6 512 25.6z" fill="#cccccc" /><path d="M512 1024C229.2224 1024 0 794.7776 0 512S229.2224 0 512 0s512 229.2224 512 512-229.2224 512-512 512z m0-998.4C243.3792 25.6 25.6 243.3792 25.6 512s217.7792 486.4 486.4 486.4 486.4-217.7792 486.4-486.4S780.6208 25.6 512 25.6z" fill="#cccccc" /><path d="M630.1184 605.8752c11.8016 0 19.6864 8.0896 19.6864 20.2496 0 12.16-7.8848 20.2752-19.6864 20.2752h-39.3728c-11.8272 0-19.712-8.1152-19.712-20.2752 0-12.16 7.8848-20.2496 19.712-20.2496h39.3728zM472.576 524.8c11.8272 0 19.712 8.1152 19.712 20.2752 0 12.16-7.8848 20.2496-19.712 20.2496h-78.7456c-11.8272 0-19.712-8.0896-19.712-20.2496 0-12.16 7.8848-20.2752 19.712-20.2752h78.7456z m196.9152 243.2H354.432c-55.1424 0-98.4576-44.5952-98.4576-101.3248v-121.6c0-12.16 7.8848-20.2752 19.6864-20.2752 11.8272 0 19.712 8.1152 19.712 20.2752v121.6c0 32.4096 27.5456 60.8 59.0592 60.8h315.0592c31.5136 0 59.0848-28.3904 59.0848-60.8V382.9248c0-32.4096-27.5712-60.8-59.0848-60.8H354.432c-31.5136 0-59.0592 28.3904-59.0592 60.8 0 12.16 7.8592 20.2752 19.6864 20.2752h236.288c11.8272 0 19.6864 8.1152 19.6864 20.2752 0 12.16-7.8592 20.2496-19.6864 20.2496h-236.288c-31.5136 0-59.0848-28.3648-59.0848-60.8 0-56.7296 43.3152-101.3248 98.4576-101.3248h315.0592c55.1424 0 98.4576 44.5952 98.4576 101.3248v283.7504c0 56.7296-43.3152 101.3248-98.4576 101.3248z" fill="#cccccc" /></svg>