<?xml version="1.0" standalone="no"?><!DOCTYPE svg PUBLIC "-//W3C//DTD SVG 1.1//EN" "http://www.w3.org/Graphics/SVG/1.1/DTD/svg11.dtd"><svg t="1530180450511" class="icon" style="" viewBox="0 0 1024 1024" version="1.1" xmlns="http://www.w3.org/2000/svg" p-id="7386" xmlns:xlink="http://www.w3.org/1999/xlink" width="200" height="200"><defs><style type="text/css"></style></defs><path d="M511.844969 65.829288c-246.219751 0-445.820742 199.602014-445.820742 445.820742 0 246.219751 199.602014 445.821765 445.820742 445.821765 246.221798 0 445.824835-199.602014 445.824835-445.821765C957.669804 265.431302 758.06779 65.829288 511.844969 65.829288zM511.844969 932.703691c-232.540194 0-421.051615-188.511421-421.051615-421.053662C90.793354 279.109836 279.305799 90.596368 511.844969 90.596368 744.389256 90.596368 932.900677 279.109836 932.900677 511.650029 932.900677 744.19227 744.389256 932.703691 511.844969 932.703691zM541.74393 382.566092c-9.67229-9.674337-25.354458-9.674337-35.026748 0L279.040762 610.240465c-9.67229 9.673313-9.67229 25.353434 0 35.027771 9.673313 9.67229 25.355481 9.67229 35.026748 0l210.162534-210.163557L734.394624 645.269259c9.670244 9.67229 25.352411 9.67229 35.026748 0 9.67229-9.674337 9.67229-25.354458 0-35.027771L541.74393 382.566092z" p-id="7387" fill="#7dc969"></path></svg>