<?xml version="1.0" standalone="no"?><!DOCTYPE svg PUBLIC "-//W3C//DTD SVG 1.1//EN" "http://www.w3.org/Graphics/SVG/1.1/DTD/svg11.dtd"><svg t="1530235528710" class="icon" style="" viewBox="0 0 1024 1024" version="1.1" xmlns="http://www.w3.org/2000/svg" p-id="1045" xmlns:xlink="http://www.w3.org/1999/xlink" width="32" height="32"><defs><style type="text/css"></style></defs><path d="M505.679828 0C229.221849 0 0 229.221849 0 518.320172 0 794.778151 229.221849 1024 505.679828 1024 794.778151 1024 1024 794.778151 1024 518.320172 1024 229.221849 794.778151 0 505.679828 0z m-21.173677 275.268817h54.987698a10.460215 10.460215 0 0 1 10.636388 10.977721l-12.232947 331.33557a5.70357 5.70357 0 0 1-5.70357 5.461333h-40.38744a5.747613 5.747613 0 0 1-5.70357-5.461333l-12.232947-331.33557a10.53729 10.53729 0 0 1 10.636388-10.977721zM512 748.731183a38.537634 38.537634 0 1 1 0-77.075269 38.537634 38.537634 0 0 1 0 77.075269z" fill="#e83e24" p-id="1046"></path></svg>