<?xml version="1.0" standalone="no"?><!DOCTYPE svg PUBLIC "-//W3C//DTD SVG 1.1//EN" "http://www.w3.org/Graphics/SVG/1.1/DTD/svg11.dtd"><svg t="1530152599774" class="icon" style="" viewBox="0 0 1024 1024" version="1.1" xmlns="http://www.w3.org/2000/svg" p-id="19002" xmlns:xlink="http://www.w3.org/1999/xlink" width="200" height="200"><defs><style type="text/css"></style></defs><path d="M783.36 541.923556c23.608889 0 42.837333-19.228444 42.837333-42.837333 0-11.434667-4.437333-22.186667-12.515556-30.321778-8.078222-8.078222-18.830222-12.515556-30.321778-12.515556-23.608889 0-42.837333 19.228444-42.837333 42.837333C740.522667 522.695111 759.751111 541.923556 783.36 541.923556L783.36 541.923556zM783.36 541.923556" p-id="19003" fill="#7dc969"></path><path d="M995.498667 532.536889c-2.332444-49.038222-26.908444-97.792-139.264-176.241778-53.361778-37.262222-101.489778-50.972444-143.928889-63.089778C666.168889 280.007111 629.76 269.653333 606.094222 232.448L605.297778 231.253333c-28.842667-45.340444-72.419556-113.948444-121.230222-113.948444-2.218667 0-4.437333 0.113778-6.599111 0.398222C456.248889 120.433778 438.954667 130.218667 426.154667 146.830222 415.857778 160.142222 408.519111 178.062222 404.252444 200.021333c-7.395556 38.115556-3.811556 80.327111-2.104889 100.636444C402.488889 304.867556 402.773333 308.167111 402.887111 310.328889c0.512 12.344889-18.944 30.947556-50.801778 48.583111C321.877333 375.523556 288.938667 387.072 274.545778 388.608c-0.227556 0-0.455111 0.056889-0.682667 0.056889-8.931556 0-23.608889-17.180444-37.774222-33.735111C210.545778 324.892444 175.502222 283.875556 125.155556 277.845333 122.538667 277.504 119.751111 277.390222 117.020444 277.390222c-21.560889 0-43.008 9.443556-58.709333 25.998222-26.282667 27.591111-30.151111 66.673778-28.842667 94.606222C31.914667 447.829333 70.712889 477.525333 93.866667 495.331556c3.697778 2.844444 7.964444 6.144 10.695111 8.533333C102.229333 505.742222 98.702222 508.188444 95.744 510.350222c-19.626667 13.937778-52.508444 37.319111-63.488 81.976889-5.973333 24.348444-4.835556 53.077333 3.128889 78.734222 11.719111 37.660444 33.28 55.978667 49.322667 64.682667 13.255111 7.224889 27.420444 10.865778 42.097778 10.865778 53.248 0 99.84-47.274667 122.823111-75.434667 14.051556-17.180444 28.16-25.543111 43.178667-25.543111 28.899556 0 56.945778 31.175111 77.425778 53.930667l1.991111 2.218667c37.319111 41.415111 34.304 69.802667 31.402667 97.28-0.227556 1.991111-0.398222 3.982222-0.625778 5.973333-6.883556 69.802667 19.854222 92.501333 43.52 99.328 5.347556 1.536 11.093333 2.332444 17.009778 2.332444l0 0c47.274667 0 104.220444-50.119111 149.959111-90.396444 2.161778-1.934222 4.380444-3.811556 6.485333-5.688889 31.744-27.875556 52.906667-28.444444 79.815111-29.184 28.956444-0.796444 65.024-1.763556 122.197333-37.660444 50.289778-31.573333 95.857778-71.452444 128.170667-112.355556C980.195556 593.464889 996.693333 557.454222 995.498667 532.536889L995.498667 532.536889zM543.061333 810.439111c-36.864 28.728889-61.269333 42.723556-74.524444 42.723556-4.608 0-8.135111-1.479111-12.401778-9.045333-5.063111-9.045333-3.470222-23.836444-1.649778-41.016889 3.754667-34.702222 8.817778-82.204444-37.660444-126.293333-3.868444-3.640889-8.305778-8.192-13.482667-13.368889-27.534222-27.818667-69.176889-69.859556-109.397333-72.476444-1.251556-0.056889-2.503111-0.113778-3.811556-0.113778-32.768 0-59.960889 27.079111-86.300444 53.248-11.434667 11.377778-22.243556 22.129778-33.166222 30.435556-14.506667 11.036444-29.127111 16.839111-42.325333 16.839111-11.605333 0-22.072889-4.494222-30.321778-13.027556-11.548444-12.003556-17.806222-30.833778-17.123556-51.655111 1.024-29.639111 23.722667-60.245333 63.886222-86.129778 22.243556-14.336 32.199111-26.282667 32.256-38.684444 0.056889-14.677333-13.596444-23.608889-26.794667-32.256-2.161778-1.422222-4.380444-2.844444-6.485333-4.323556C142.620444 464.384 141.198222 463.473778 139.491556 462.449778 130.958222 457.159111 115.086222 447.317333 94.663111 422.684444 78.336 402.887111 77.880889 378.083556 82.944 361.415111 87.552 346.225778 97.109333 335.075556 108.487111 331.719111c3.128889-0.910222 6.314667-1.422222 9.443556-1.422222 23.324444 0 46.535111 26.396444 69.006222 51.882667 25.315556 28.728889 51.541333 58.481778 83.456 58.481778 2.048 0 4.096-0.113778 6.087111-0.341333 29.752889-3.584 69.233778-18.545778 105.642667-39.992889 18.261333-10.752 61.724444-38.855111 71.111111-67.754667 4.778667-14.677333 3.413333-36.579556 1.877333-61.895111C451.982222 216.803556 451.868444 175.160889 481.621333 169.301333c0.739556-0.170667 1.479111-0.227556 2.218667-0.227556 17.521778 0 42.951111 36.750222 65.422222 69.176889 29.411556 42.439111 59.847111 86.357333 94.549333 92.899556l7.338667 1.365333c60.131556 11.320889 93.240889 17.521778 164.920889 60.700444 42.552889 25.656889 71.907556 47.559111 92.501333 69.006222 22.926222 23.950222 34.474667 47.160889 35.157333 70.883556 0.796444 26.055111-36.010667 74.069333-98.474667 128.398222-29.809778 25.941333-60.757333 44.828444-92.103111 56.149333-24.632889 8.931556-49.095111 13.255111-74.808889 13.255111-9.216 0-18.432-0.568889-28.273778-1.706667-1.934222-0.227556-3.925333-0.341333-5.859556-0.341333-28.273778 0-48.469333 23.950222-68.039111 47.104C565.76 788.366222 554.951111 801.166222 543.061333 810.439111L543.061333 810.439111zM543.061333 810.439111" p-id="19004" fill="#7dc969"></path></svg>