<?xml version="1.0" standalone="no"?><!DOCTYPE svg PUBLIC "-//W3C//DTD SVG 1.1//EN" "http://www.w3.org/Graphics/SVG/1.1/DTD/svg11.dtd"><svg t="1530152512808" class="icon" style="" viewBox="0 0 1042 1024" version="1.1" xmlns="http://www.w3.org/2000/svg" p-id="18379" xmlns:xlink="http://www.w3.org/1999/xlink" width="203.515625" height="200"><defs><style type="text/css"></style></defs><path d="M977.952754 718.436873 935.239182 718.436873C911.117034 772.302022 874.073478 819.653208 819.225089 855.92656L836.923404 897.94367C849.697327 930.52168 833.736068 967.32762 801.272771 980.150704L688.95402 1019.578617C656.490722 1032.401701 619.815881 1016.383088 607.041958 983.805078L583.56711 928.047193C569.596913 929.210693 555.184257 930.062834 540.263594 930.562648 497.050209 931.996539 455.647623 929.268049 416.588425 922.836022L390.786577 981.691113C378.012654 1014.269122 341.337813 1030.279542 308.874515 1017.464651L207.084623 969.580877C174.621325 956.757793 158.660067 919.951853 171.442183 887.382037L196.793381 829.551154C142.625066 786.190283 103.778904 730.964986 85.261222 667.750866 68.636277 611.034321 82.418021 531.096932 85.072768 518.331203 64.154343 509.613145 34.935736 491.816506 15.664238 456.411682-4.172624 419.95807-7.663125 364.609868 19.875781 319.061288 34.11637 295.52089 83.819137 259.640834 106.908883 301.453103 120.60869 326.271712 99.190452 340.200942 93.577792 344.420679 87.956938 348.656803 71.643352 358.390876 74.625846 403.587129 76.346516 429.765886 90.070903 442.941298 104.278717 449.627328 159.086138 311.19537 306.0477 217.050167 519.099359 226.792434 546.220388 228.037871 571.743653 230.192805 595.964124 233.093362 614.047541 211.66693 635.514942 188.954092 659.497797 168.986132 709.07766 127.698258 801.158059 89.851723 822.13384 114.104969 839.496214 134.171253 836.972566 147.002531 823.469407 180.449069 815.013546 201.392075 806.172582 241.762259 802.632919 293.636347 875.081299 334.440796 918.155392 392.288066 938.246257 463.810561L977.952754 463.810561C1012.841376 463.810561 1041.125905 492.193414 1041.125905 527.204942L1041.125905 655.042492C1041.125905 690.05402 1012.841376 718.436873 977.952754 718.436873ZM970.58665 541.994506C970.58665 536.160617 965.875293 531.424679 960.057791 531.424679L883.324125 531.424679C872.188935 441.302565 824.542777 372.197201 724.702978 332.072827 722.6054 283.95963 744.22848 198.622616 744.22848 198.622616 744.22848 198.622616 682.259797 222.662827 643.298923 308.237457 606.648662 300.756642 565.278851 295.873218 518.747032 293.832995 309.947885 284.656091 175.924118 388.412462 150.990797 530.269372 152.449269 521.960997 134.709986 599.792614 150.867892 652.723685 170.426169 716.765365 216.720372 770.696064 281.548644 808.47705L245.684976 899.942924C243.554623 905.375324 246.20937 911.512378 251.625382 913.642731L322.902068 950.038988C328.31808 952.177534 334.430554 949.514593 336.560906 944.082194L375.27597 847.773864C424.003692 861.621156 478.344073 868.479254 536.691157 866.619292 571.456874 865.513147 602.977901 862.227488 631.778631 857.163803L663.381594 937.740298C665.503753 943.164504 671.616227 945.843832 677.032239 943.705285L754.62624 919.984627C760.042252 917.846081 762.696999 911.709026 760.57484 906.284821L730.200926 828.395848C802.346141 796.891209 847.050773 748.401103 873.065657 690.897967 879.006064 677.771717 882.209786 663.58029 883.979618 648.70879L960.057791 648.70879C965.875293 648.70879 970.58665 643.972852 970.58665 638.138963L970.58665 541.994506ZM766.334986 589.534146C733.191614 589.534146 706.324589 562.576991 706.324589 529.318907 706.324589 496.060824 733.191614 469.095475 766.334986 469.095475 799.478358 469.095475 826.345383 496.060824 826.345383 529.318907 826.345383 562.576991 799.478358 589.534146 766.334986 589.534146ZM487.316136 182.784263C487.316136 117.243142 434.360483 64.107229 369.040592 64.107229 303.728893 64.107229 250.773241 117.243142 250.773241 182.784263 250.773241 201.121684 255.04214 218.410316 262.432825 233.912728L203.831738 262.09074C192.65558 238.312726 186.223554 211.855384 186.223554 183.833052 186.223554 82.305358 268.242133 0 369.4175 0 470.134022 0 551.800274 81.576122 552.537703 182.472904L487.234199 184.414802C487.234199 183.865827 487.316136 183.333239 487.316136 182.784263Z" p-id="18380"></path></svg>