<?xml version="1.0" standalone="no"?><!DOCTYPE svg PUBLIC "-//W3C//DTD SVG 1.1//EN" "http://www.w3.org/Graphics/SVG/1.1/DTD/svg11.dtd"><svg t="1530152699322" class="icon" style="" viewBox="0 0 1024 1024" version="1.1" xmlns="http://www.w3.org/2000/svg" p-id="20469" xmlns:xlink="http://www.w3.org/1999/xlink" width="200" height="200"><defs><style type="text/css"></style></defs><path d="M746.6 313.3c66.7-69 102.2-162.4 98.2-258.4-0.2-10.6-8.7-19.3-19.3-19.7-156.9-5.6-298.7 92.7-348.5 241.5-47.6-110.4-158-180.3-278.1-176.3-10.6 0.2-19.3 8.7-19.7 19.3a287.36 287.36 0 0 0 80.5 212.5c52.7 55 125.1 86.9 201.2 88.5v165.8h-132c-5.9-0.1-11.5 2.4-15.3 6.9-3.9 4.4-5.6 10.3-4.8 16.1l53.1 365c1.4 10 10 17.4 20.1 17.3h63.6c9.8-0.1 18.1-7.2 19.7-16.9 1.9-6.3 7.7-10.7 14.3-10.7 6.6 0 12.4 4.4 14.3 10.7 1.6 9.7 9.9 16.8 19.7 16.9h64c10.1 0.1 18.7-7.3 20.1-17.3l53.1-365c0.8-5.8-0.9-11.7-4.8-16.1-3.9-4.4-9.5-6.9-15.3-6.9H501.1V420.8c92.9-1.8 181.2-40.5 245.5-107.5zM559.9 951.1h-31.8c-9.4-18-28.1-29.4-48.5-29.4s-39 11.3-48.5 29.4h-32.2l-47.1-324.4H607l-47.1 324.4zM805 75.5c-1.5 78.4-32.7 153.3-87.3 209.7-56.6 59.3-134.5 93.8-216.5 95.8C504.9 214.4 638.5 80.1 805 75.5z m-585.6 65.2c131.5 4.4 237.1 110 241.5 241.5-64.5-2.3-125.6-29.7-170.2-76.5-43.7-44.1-69.1-103-71.3-165z m0 0" p-id="20470" fill="#7dc969"></path></svg>