<?xml version="1.0" standalone="no"?><!DOCTYPE svg PUBLIC "-//W3C//DTD SVG 1.1//EN" "http://www.w3.org/Graphics/SVG/1.1/DTD/svg11.dtd"><svg t="1530151708804" class="icon" style="" viewBox="0 0 1024 1024" version="1.1" xmlns="http://www.w3.org/2000/svg" p-id="10474" xmlns:xlink="http://www.w3.org/1999/xlink" width="200" height="200"><defs><style type="text/css"></style></defs><path d="M784.384 64.576c-15.04 0-27.264 12.224-27.264 27.264l0 148.032c0 0.064-0.064 0.128-0.064 0.128 0 0.128 0.064 0.192 0.064 0.192l0 1.152 0.064 0c0 14.784 11.776 25.856 25.792 25.856l1.216 0.064c0.064 0 0.128 0 0.192 0s0.064 0 0.128 0l148.032 0c15.104 0 27.328-12.224 27.328-27.264 0-15.104-12.16-27.264-27.328-27.264l-82.304 0 58.24-58.24c10.624-10.688 10.624-27.968 0-38.592-5.376-5.312-12.352-8-19.328-8-6.976 0-13.952 2.688-19.264 8l-58.24 58.24L811.648 91.84C811.648 76.8 799.36 64.576 784.384 64.576L784.384 64.576z" p-id="10475"></path><path d="M734.912 289.408C681.728 236.16 611.968 209.536 542.144 209.536c-69.76 0-139.584 26.688-192.832 79.936C330.496 308.288 315.072 329.216 302.848 351.488L302.336 352.448c-4.48 8.192-8.448 16.576-12.032 25.088l-211.968 444.096c-20.608 34.88-16 80.576 13.888 110.528 17.728 17.728 40.64 27.776 63.936 27.776 11.776 0 23.616-2.496 34.944-7.936 33.664-16.192 463.04-221.12 463.04-221.12 3.264-1.408 12.608-6.08 12.608-6.08 24.576-12.544 47.616-29.184 68.096-49.664C841.408 568.576 841.408 395.904 734.912 289.408zM696.768 636.864c-16 16-34.176 29.312-54.208 39.68-4.352 2.112-9.152 4.416-10.368 4.992l-0.64 0.256-0.576 0.32-176.064 84.032-104.704-104.832L350.144 661.312c-10.624-10.624-27.904-10.624-38.592 0-10.688 10.688-10.688 27.904 0 38.592 0 0 0 0 0 0.064l91.136 91.136-234.816 112.128c-3.84 1.792-7.68 2.688-11.712 2.688-8.768 0-18.176-4.352-25.792-12.032-11.84-11.904-14.208-30.272-5.632-44.8l1.28-2.048 1.024-2.112 212.032-444.16 0.576-1.28 0.576-1.28c2.752-6.656 5.952-13.312 9.408-19.84L350.08 377.664l0.128-0.128 0.064-0.128c1.92-3.584 4.096-7.04 6.208-10.56l179.456 178.56c0.064 0 0.064 0 0.064 0.064 10.688 10.624 27.968 10.624 38.528 0 10.624-10.688 10.624-27.968 0-38.592L574.464 506.816l0 0L391.04 324.224c40.832-39.168 94.336-60.736 151.04-60.736 58.432 0 113.344 22.72 154.688 64.064 41.344 41.344 64.064 96.192 64.064 154.624C760.896 540.608 738.112 595.648 696.768 636.864z" p-id="10476"></path></svg>